<svg xmlns="http://www.w3.org/2000/svg" width="72" height="72" viewBox="0 0 72 72"><g><g><g><path fill="#dc3f4d" d="M35.994 0h.012C55.885 0 72 16.115 72 35.994V36c0 19.882-16.118 36-36 36S0 55.882 0 36v-.006C0 16.115 16.115 0 35.994 0z"/></g><g><path fill="#fff" d="M20.545 39.082h24.764l-8.382 8.504a2.609 2.609 0 0 0 0 3.652 2.52 2.52 0 0 0 3.6 0l12.727-12.913a2.609 2.609 0 0 0 0-3.652L40.526 21.761a2.52 2.52 0 0 0-3.6 0 2.609 2.609 0 0 0 0 3.652l8.383 8.504H20.545c-1.406 0-2.546 1.156-2.546 2.583 0 1.426 1.14 2.582 2.546 2.582z"/></g></g></g></svg>