<svg xmlns="http://www.w3.org/2000/svg" width="72" height="72" viewBox="0 0 72 72"><g><g><g><path fill="#ffffff" d="M35.994 0h.012C55.885 0 72 16.115 72 35.994V36c0 19.882-16.118 36-36 36S0 55.882 0 36v-.006C0 16.115 16.115 0 35.994 0z"/></g><g><path fill="#000" d="M51.455 39.082H26.691l8.382 8.504a2.609 2.609 0 0 1 0 3.652 2.52 2.52 0 0 1-3.6 0L18.747 38.324a2.609 2.609 0 0 1 0-3.652l12.728-12.912a2.52 2.52 0 0 1 3.6 0 2.609 2.609 0 0 1 0 3.652l-8.383 8.504h24.764c1.406 0 2.546 1.156 2.546 2.583 0 1.426-1.14 2.582-2.546 2.582z"/></g></g></g></svg>